<?xml version="1.0" encoding="utf-8"?>
<!-- Generator: Adobe Illustrator 21.1.0, SVG Export Plug-In . SVG Version: 6.00 Build 0)  -->
<svg version="1.1" id="Layer_1" xmlns="http://www.w3.org/2000/svg" xmlns:xlink="http://www.w3.org/1999/xlink" x="0px" y="0px"
	 viewBox="0 0 525 90" style="enable-background:new 0 0 525 90;" xml:space="preserve">
<style type="text/css">
	.st0{fill:#FFFFFF;}
</style>
<title>cake_logo_white</title>
<g id="Layer_2">
	<path class="st0" d="M100.3,64.9V22.1h9.1v42.8H100.3z"/>
	<path class="st0" d="M146.6,64.9h-8.9V45.8c0.1-1.9-0.3-3.7-1.3-5.3c-0.9-1.2-2.5-1.9-4-1.8c-2.5,0-4.3,0.8-5.4,2.5
		c-1.1,1.7-1.7,4.4-1.7,8.3v15.4h-8.9V32.2h6.8l1.2,4.2h0.5c1-1.6,2.4-2.8,4.1-3.6c1.9-0.8,3.9-1.3,6-1.2c3.8,0,6.7,1,8.7,3.1
		s3,5,3,8.9L146.6,64.9z"/>
	<path class="st0" d="M166.4,58.4c1.9-0.1,3.8-0.4,5.6-1V64c-2.6,1.1-5.4,1.6-8.2,1.5c-3.6,0-6.2-0.9-7.8-2.7s-2.4-4.5-2.5-8.1V38.9
		h-4.3v-3.8l4.9-3l2.6-6.9h5.7v7h9.2v6.7h-9.2v15.8c-0.1,1.1,0.3,2.1,1.1,2.8C164.3,58.2,165.4,58.5,166.4,58.4z"/>
	<path class="st0" d="M190.3,65.5c-5.3,0-9.4-1.5-12.4-4.4c-3-2.9-4.4-7-4.4-12.4c0-5.5,1.4-9.7,4.1-12.7s6.5-4.5,11.4-4.5
		c4.6,0,8.2,1.3,10.8,4c2.6,2.7,3.9,6.3,3.9,10.9v4.3h-21.1c0,2.2,0.8,4.3,2.2,5.9c1.6,1.5,3.7,2.3,5.9,2.1c1.9,0,3.8-0.2,5.6-0.6
		c1.9-0.5,3.7-1.1,5.5-2v6.9c-1.6,0.8-3.3,1.4-5,1.7C194.6,65.3,192.4,65.5,190.3,65.5z M189,37.9c-1.7-0.1-3.3,0.6-4.4,1.8
		c-1.2,1.4-1.8,3.2-1.9,5.1h12.5c0.1-1.9-0.5-3.7-1.7-5.1C192.3,38.5,190.7,37.9,189,37.9L189,37.9z"/>
	<path class="st0" d="M226,31.6c1,0,2,0.1,3,0.3l-0.7,8.4c-0.9-0.2-1.8-0.3-2.6-0.3c-2.4-0.1-4.8,0.6-6.7,2.2
		c-1.7,1.6-2.5,3.9-2.4,6.2v16.7h-8.9V32.2h6.8l1.3,5.5h0.4c1-1.8,2.4-3.3,4.1-4.4C222,32.2,224,31.6,226,31.6z"/>
	<path class="st0" d="M242.4,64.9L230,32.2h9.4l6.3,18.7c0.7,2.2,1.1,4.4,1.3,6.7h0.2c0.2-2.3,0.6-4.5,1.3-6.7l6.3-18.7h9.3
		l-12.5,32.8H242.4z"/>
	<path class="st0" d="M268.1,23.7c0-2.9,1.6-4.4,4.9-4.4c3.2,0,4.9,1.5,4.9,4.4c0.1,1.2-0.4,2.4-1.2,3.2c-1,0.8-2.3,1.3-3.6,1.2
		C269.7,28.1,268.1,26.7,268.1,23.7z M277.4,65h-8.9V32.2h8.9V65z"/>
	<path class="st0" d="M298.4,65.5c-5.3,0-9.4-1.5-12.4-4.4c-3-2.9-4.5-7-4.5-12.4c0-5.5,1.4-9.7,4.1-12.7c2.7-3,6.5-4.5,11.4-4.5
		c4.6,0,8.2,1.3,10.8,4c2.6,2.7,3.9,6.3,3.9,10.9v4.3h-21.2c0,2.2,0.8,4.3,2.2,5.9c1.6,1.5,3.7,2.3,5.9,2.1c1.9,0,3.8-0.2,5.6-0.6
		c1.9-0.5,3.7-1.1,5.5-2v6.9c-1.6,0.8-3.3,1.4-5,1.7C302.8,65.3,300.6,65.5,298.4,65.5z M297.2,37.9c-1.7-0.1-3.3,0.6-4.5,1.8
		c-1.2,1.4-1.8,3.2-1.9,5.1h12.5c0.1-1.9-0.5-3.7-1.7-5.1C300.5,38.5,298.9,37.9,297.2,37.9z"/>
	<path class="st0" d="M342.8,64.9l-2.5-11.5L336.9,39h-0.2l-6,25.9h-9.6l-9.3-32.7h8.9l3.8,14.5c0.6,2.6,1.2,6.2,1.9,10.8h0.2
		c0.2-2.4,0.5-4.7,1-7.1l0.5-2.5l4-15.7h9.8l3.8,15.7c0.1,0.4,0.2,1.1,0.4,1.9s0.3,1.7,0.5,2.7c0.2,0.9,0.3,1.9,0.4,2.8
		s0.2,1.6,0.2,2.2h0.2c0.2-1.4,0.5-3.3,0.9-5.8c0.5-2.5,0.8-4.1,1-5l3.9-14.5h8.8l-9.4,32.8L342.8,64.9z"/>
	<path class="st0" d="M395.4,29.1c-3.1-0.1-6.1,1.3-7.9,3.9c-1.9,2.6-2.8,6.1-2.8,10.7c0,9.6,3.6,14.3,10.8,14.3
		c3.7-0.1,7.4-0.9,10.9-2.2v7.6c-3.7,1.5-7.7,2.3-11.8,2.2c-6.2,0-11-1.9-14.3-5.7s-5-9.2-5-16.3c-0.1-4,0.7-8,2.4-11.7
		c1.5-3.2,3.9-5.9,7-7.7c3.3-1.9,7-2.8,10.7-2.7c4.4,0,8.6,1.1,12.5,3l-2.9,7.4c-1.6-0.8-3.2-1.4-4.8-2
		C398.6,29.3,397,29.1,395.4,29.1z"/>
	<path class="st0" d="M432.3,64.9l-1.7-4.4h-0.2c-1.2,1.7-2.8,3-4.6,3.9c-2,0.8-4.1,1.2-6.2,1.1c-2.7,0.2-5.4-0.8-7.4-2.7
		c-1.8-1.8-2.7-4.4-2.7-7.7c0-3.5,1.2-6,3.6-7.7s6.1-2.6,11-2.7l5.7-0.2v-1.4c0-3.3-1.7-5-5.1-5c-3.2,0.1-6.4,1-9.2,2.4l-3-6
		c3.9-2,8.2-3,12.5-3c4.4,0,7.8,1,10.1,2.9c2.3,1.9,3.5,4.8,3.5,8.7v21.9H432.3z M429.7,49.7l-3.5,0.1c-2-0.1-4,0.4-5.8,1.4
		c-1.3,0.9-2,2.4-1.9,3.9c0,2.5,1.4,3.8,4.3,3.8c1.8,0.1,3.6-0.5,5-1.8c1.3-1.2,1.9-3,1.9-4.8L429.7,49.7z"/>
	<path class="st0" d="M453.2,47.1l3.9-5l9.2-10h10.1l-13,14.2l13.8,18.5h-10.3l-9.4-13.3l-3.8,3.1v10.2h-8.9V19.4h8.9v20.4l-0.5,7.4
		L453.2,47.1z"/>
	<path class="st0" d="M493.4,65.5c-5.3,0-9.4-1.5-12.4-4.4c-3-2.9-4.5-7-4.5-12.4c0-5.5,1.4-9.7,4.1-12.7c2.7-3,6.6-4.5,11.4-4.5
		c4.6,0,8.2,1.3,10.8,4c2.6,2.7,3.9,6.3,3.9,10.9v4.3h-21.2c0,2.2,0.8,4.3,2.2,5.9c1.6,1.5,3.7,2.3,5.9,2.1c1.9,0,3.8-0.2,5.6-0.6
		c1.9-0.5,3.7-1.1,5.5-2v6.9c-1.6,0.8-3.3,1.4-5,1.7C497.8,65.3,495.6,65.5,493.4,65.5z M492.2,37.9c-1.7-0.1-3.3,0.6-4.5,1.8
		c-1.2,1.4-1.8,3.2-1.9,5.1h12.5c0.1-1.9-0.5-3.7-1.7-5.1C495.5,38.5,493.9,37.9,492.2,37.9z"/>
	<path class="st0" d="M62.4,12.7c-2.1,0.2-4.2,0.4-6.2,0.6c-12.9,1.5-24,4.5-32.4,8.4c-1.9,0.9-3.8,1.9-5.6,3v37.6l61.1,14.9V39.1
		L62.4,12.7z M73.7,70.2L23.8,58V46.7l49.9,12.4L73.7,70.2z M73.7,53.4L23.8,41l0-11.2l49.9,12.4L73.7,53.4z"/>
</g>
</svg>
